<?xml version="1.0" encoding="UTF-8" standalone="no"?>
<!DOCTYPE svg PUBLIC "-//W3C//DTD SVG 1.1//EN" "http://www.w3.org/Graphics/SVG/1.1/DTD/svg11.dtd">
<svg width="100%" height="100%" viewBox="0 0 545 409" version="1.1" xmlns="http://www.w3.org/2000/svg" xmlns:xlink="http://www.w3.org/1999/xlink" xml:space="preserve" xmlns:serif="http://www.serif.com/" style="fill-rule:evenodd;clip-rule:evenodd;stroke-linejoin:round;stroke-miterlimit:2;">
    <g transform="matrix(1,0,0,1,-130.186,-111.414)">
        <path d="M631.354,111.632C627.819,112.423 625.925,115.457 625.034,121.757C624.102,128.353 622.645,131.317 619.511,132.994C616.243,134.743 458.068,136.067 451.672,134.399C447.679,133.358 445.639,133.391 439.871,134.594C434.236,135.769 421.341,136.058 372.699,136.101C339.589,136.13 288.83,136.232 259.901,136.327C200.783,136.521 203.137,136.798 200.523,129.343C199.685,126.954 198.325,123.072 197.5,120.715C195.314,114.474 192.21,113 181.251,113C170.593,113 169.41,113.838 168.02,122.376C166.878,129.397 167.014,129.188 160.334,134.122C157.18,136.453 154.23,139.598 153.452,141.461C152.537,143.65 151.764,152.913 151.102,169.611C150.536,183.889 149.587,196.12 148.875,198.299C148.184,200.415 145.833,203.706 143.567,205.731C137.706,210.967 136.014,213.897 136.007,218.827C136.001,222.324 136.586,223.74 139.057,226.211C141.951,229.104 142.432,229.239 148.082,228.726C152.467,228.329 156.63,228.82 163.775,230.577C176.182,233.629 177.272,234.247 180.415,240.022C181.848,242.653 184.985,247.476 187.386,250.738C193.599,259.177 194,260.164 194,267.004C194,271.522 193.219,275.032 191.037,280.32C189.407,284.269 187.609,289.622 187.041,292.215C186.472,294.808 184.7,300.221 183.102,304.244C180.441,310.942 179.25,314.822 177.602,322.167C177.273,323.634 174.755,327.459 172.007,330.667C168.87,334.328 166.013,339.106 164.334,343.5C161.921,349.813 156.334,357 153.839,357C153.415,357 151.462,362.147 149.499,368.437C146.086,379.369 145.703,380.062 140.834,384.139L135.741,388.403L136.337,395.457C136.732,400.132 136.443,404.533 135.48,408.506C134.681,411.803 133.777,418.775 133.47,424C133.164,429.225 132.184,437.379 131.292,442.119C129.896,449.542 129.854,451.597 130.984,456.923C132.624,464.654 134.742,467.383 140.665,469.402C150.054,472.601 151.125,476.375 145.5,486.434C141.574,493.453 141.281,495.682 143.63,500.633C146.518,506.72 151.956,508.96 167.727,510.56C175.302,511.329 187.575,512.869 195,513.983C202.425,515.096 212.277,516.468 216.892,517.031C221.508,517.593 227.133,518.481 229.392,519.002C231.652,519.524 238.645,519.962 244.934,519.976C254.451,519.996 257.079,519.656 260.603,517.95C266.639,515.028 272.411,508.32 275.001,501.218C277.322,494.851 280.981,490.383 287.315,486.18C293.079,482.355 293.987,479.817 293.318,469.406C292.701,459.794 294.492,449.983 297.785,444.937C298.728,443.492 300.945,440.154 302.712,437.519C304.703,434.55 306.554,429.897 307.58,425.283C308.491,421.188 310.584,415.314 312.23,412.229C313.876,409.145 315.824,404.916 316.559,402.832C318.386,397.653 325.377,387.374 330.481,382.361C335.51,377.422 336.308,373.34 335.338,357.5C334.798,348.669 334.976,346.842 336.773,342.78C339.521,336.567 342.222,335.377 355.5,334.529C365.786,333.872 367.246,334.024 378,336.873L389.5,339.92L427.52,340.356C458.632,340.712 466.749,341.095 472.195,342.46C478.286,343.988 479.109,343.995 481.908,342.548C487.152,339.836 488.336,336.11 487.537,324.841C486.869,315.413 486.964,314.716 489.998,306.848C492.539,300.26 493.331,296.308 494.062,286.582C495.203,271.4 495.626,269.362 498.587,264.778C501.754,259.876 504.953,258.374 514,257.546C518.125,257.169 525.325,256.233 530,255.468C534.675,254.703 542.1,253.995 546.5,253.896C560.383,253.583 599.96,254.791 613.878,255.954C623.893,256.79 628.131,256.782 630.737,255.922C633.29,255.079 635.722,255.059 639.859,255.847C642.962,256.438 649.347,257.18 654.049,257.496C661.858,258.022 662.897,257.871 666.049,255.751L669.5,253.43L670.141,243.465C671.079,228.869 672.867,211.154 673.922,206C675.107,200.205 674.339,143.502 673.042,141.079C672.504,140.072 669.91,137.868 667.279,136.179C661.453,132.441 659.343,129.069 658.405,121.998C657.529,115.393 654.612,112.003 649.795,111.993C647.983,111.989 643.575,111.798 640,111.569C636.425,111.339 632.534,111.368 631.354,111.632M462.423,256.977C472.039,259.159 475.477,265.117 476.409,281.214C477.39,298.168 474.691,306.176 466.547,310.478C464.001,311.823 462.017,314.007 460.347,317.302C456.507,324.88 454.131,325.5 434.659,324.005C424.866,323.253 413.528,323.058 405.05,323.497L391.311,324.209L383.905,321.051C379.832,319.314 374.797,317.166 372.715,316.278C368.293,314.393 362.332,308.17 361.403,304.471C360.548,301.063 361.525,295.374 363.477,292.394C364.78,290.406 365.88,290 369.958,290C377.232,290 379.782,291.349 387.523,299.293C391.68,303.559 398.192,308.744 403.481,312C411.298,316.811 413.067,317.5 417.604,317.5C427.021,317.5 430.112,311.461 423.341,306.293C414.663,299.669 410.872,295.468 407.51,288.748C404.471,282.672 404.003,280.777 404.022,274.616C404.052,264.886 406.432,259.681 411.652,257.927C413.768,257.216 418.65,256.302 422.5,255.895C430.85,255.014 456.881,255.72 462.423,256.977"/>
    </g>
</svg>
