<?xml version="1.0" encoding="UTF-8" standalone="no"?>
<!DOCTYPE svg PUBLIC "-//W3C//DTD SVG 1.1//EN" "http://www.w3.org/Graphics/SVG/1.1/DTD/svg11.dtd">
<svg width="100%" height="100%" viewBox="0 0 579 454" version="1.1" xmlns="http://www.w3.org/2000/svg" xmlns:xlink="http://www.w3.org/1999/xlink" xml:space="preserve" xmlns:serif="http://www.serif.com/" style="fill-rule:evenodd;clip-rule:evenodd;stroke-linejoin:round;stroke-miterlimit:2;">
    <g transform="matrix(1,0,0,1,-113.153,-87.0835)">
        <path d="M166.673,87.97C161.368,88.996 159.299,91.465 157.101,99.391C155.601,104.8 154.269,107.186 150.698,110.86C148.218,113.412 145.022,117.25 143.595,119.39L141,123.279L141,172.892L137.079,180.47C134.922,184.637 130.83,190.594 127.984,193.708C120.658,201.724 119.387,205.786 122.863,210.079C124.546,212.157 125.875,212.449 136.613,213.101C146.559,213.705 150.549,214.486 161.05,217.885C168.939,220.438 174.395,222.792 175.739,224.223C176.915,225.475 179.318,229.875 181.078,234L184.278,241.5L183.69,258.09C183.123,274.087 182.97,275.034 179.398,284.59C177.361,290.041 173.898,297.352 171.703,300.837C169.507,304.322 166.421,310.344 164.844,314.218C163.267,318.093 160.486,323.341 158.663,325.881C153.721,332.77 150.38,338.962 148.888,344C148.003,346.986 145.992,350.014 142.909,353C140.354,355.475 137.245,359.525 136.001,362C134.757,364.475 132.949,367.625 131.983,369C129.712,372.234 126.952,381.945 123.173,400C120.672,411.949 120.048,417.667 119.625,432.5C119.005,454.241 117.491,471.03 114.919,484.698C111.901,500.734 112.242,502.537 119.986,511.483C123.92,516.029 124,516.275 124.004,523.811C124.008,533.403 125.907,537.035 132.166,539.426C136.047,540.908 142.275,541.051 191.501,540.791C241.976,540.524 246.829,540.352 250.5,538.697C258.576,535.057 263,528.964 263,521.484C263,518.945 263.463,516.003 264.03,514.945C265.258,512.649 269.208,510.532 273.948,509.628C275.844,509.267 278.485,508.257 279.816,507.385C282.361,505.717 282.358,505.776 280.383,495.254C279.916,492.764 280.603,490.263 283.333,484.514C285.808,479.303 287.848,472.372 290.031,461.76C293.112,446.786 294.255,443.832 300.293,435.244C302.02,432.787 304.187,427.074 305.971,420.276C309.513,406.777 311.012,403.114 315.494,397.008C317.422,394.381 319,391.91 319,391.517C319,389.048 322.729,383.783 326.021,381.604C330.665,378.532 331.78,375.284 332.585,362.5C333.108,354.19 335.814,337.651 338.104,328.776C339.145,324.74 342.295,321.875 350.399,317.59C357.909,313.62 365.545,314.268 383.244,320.379L390.988,323.053L442.445,322.776C482.742,322.56 494.18,322.221 495.186,321.214C496.091,320.309 496.475,316.313 496.486,307.714C496.496,298.854 496.996,293.852 498.306,289.5C499.38,285.929 500.442,277.812 500.927,269.449C501.792,254.551 502.687,251.484 507.467,247.017C508.929,245.651 511.065,243.012 512.215,241.152C516.044,234.956 515.582,235.003 573.218,234.969C607.114,234.949 628.137,234.538 633,233.799C642.119,232.414 646.157,232.422 656.411,233.843C667.346,235.358 680.429,234.017 683.359,231.081C685.409,229.026 685.502,228.033 685.549,207.718C685.588,190.484 685.934,185.28 687.394,180C688.931,174.442 689.017,172.769 687.985,168.452C687.246,165.362 686.933,158.767 687.179,151.452C687.511,141.568 687.963,138.771 689.791,135.29C692.667,129.808 692.675,124.707 689.811,122.039C688.608,120.918 687.273,120 686.845,120C686.417,120 683.689,117.941 680.783,115.425C677.878,112.908 674.038,109.596 672.25,108.065C669.735,105.91 669,104.49 669,101.788C669,97.498 665.469,92.006 661.463,90.064C659.664,89.192 654.166,88.459 647.466,88.197C636.749,87.777 636.344,87.839 633.346,90.362C630.126,93.072 628.834,95.6 626.996,102.796C624.874,111.101 630.213,110.603 544.321,110.512C502.619,110.467 467.927,110.076 467.228,109.643C466.528,109.209 463.828,109.545 461.228,110.388C455.731,112.172 429.537,112.708 398,111.682C365.118,110.612 339.506,110.736 316.467,112.076C298.299,113.133 291.074,113.123 275.281,112.02C259.43,110.912 252.726,110.905 236.403,111.981C209.233,113.772 192.145,111.635 190.653,106.261C190.384,105.292 189.876,101.967 189.525,98.871C188.386,88.832 180.837,85.231 166.673,87.97M468.993,236.614C474.46,238.801 476.735,242.388 478.88,252.205C479.878,256.772 481.384,261.857 482.227,263.505C484.964,268.857 485.171,272.271 483.151,278.762C477.642,296.463 463.463,307.892 448.455,306.731C440.643,306.126 436.511,303.922 434.012,299.024C432.908,296.86 430.349,293.832 428.325,292.295C413.623,281.13 409.346,274.311 408.387,260.5C407.444,246.935 410.509,238.943 417.164,237.615C424.76,236.099 435.378,235.283 449.23,235.151C461.639,235.032 465.811,235.341 468.993,236.614M377.379,271.951C385.95,275.153 388.585,277.144 393.321,284C395.031,286.475 399.034,291.301 402.215,294.725C405.397,298.148 408,301.379 408,301.903C408,303.732 404.911,305.926 401.413,306.582C395.359,307.718 387.913,306.169 382.5,302.648C379.75,300.859 375.375,298.599 372.778,297.626C370.182,296.653 366.919,294.504 365.528,292.851C363.224,290.113 363,289.03 363,280.623C363,267.578 364.022,266.961 377.379,271.951"/>
    </g>
</svg>
