<?xml version="1.0" encoding="UTF-8" standalone="no"?>
<!DOCTYPE svg PUBLIC "-//W3C//DTD SVG 1.1//EN" "http://www.w3.org/Graphics/SVG/1.1/DTD/svg11.dtd">
<svg width="100%" height="100%" viewBox="0 0 583 451" version="1.1" xmlns="http://www.w3.org/2000/svg" xmlns:xlink="http://www.w3.org/1999/xlink" xml:space="preserve" xmlns:serif="http://www.serif.com/" style="fill-rule:evenodd;clip-rule:evenodd;stroke-linejoin:round;stroke-miterlimit:2;">
    <g transform="matrix(1,0,0,1,-106.101,-89.0213)">
        <path d="M160.069,90.75C157.964,92.461 155.37,96.881 148.77,110L145.5,116.5L145.761,137.5C146.111,165.726 145.378,171.035 140.011,179.148C137.7,182.642 132.477,188.692 128.405,192.593C121.567,199.142 121,199.998 121,203.766C121,208.817 124.487,213.346 129.701,215.066C131.701,215.726 139.674,216.371 147.419,216.499C167.786,216.834 174.392,219.743 179.947,230.821C181.138,233.198 184.07,237.023 186.462,239.321C192.657,245.273 194.401,251.773 193.734,266.417C193.19,278.358 191.533,284.513 186.895,291.826C184.219,296.046 181.449,304.092 179.009,314.731C178.347,317.617 176.351,321.875 174.555,324.231C170.474,329.585 168.893,332.685 165.696,341.601C164.296,345.506 160.572,352.481 157.42,357.101C154.267,361.72 150.601,367.975 149.271,371C147.942,374.025 144.668,378.75 141.996,381.5C139.102,384.479 136.359,388.574 135.21,391.632C134.149,394.455 132.107,398.304 130.672,400.185C129.177,402.146 127.392,406.573 126.492,410.554C125.628,414.374 123.837,420.2 122.511,423.5C121.186,426.8 119.794,431.075 119.419,433C119.044,434.925 116.596,441 113.981,446.5C107.572,459.974 105.614,467.822 106.199,477.689C106.926,489.944 110.306,494.986 117.821,495.024C124.633,495.059 129.847,496.51 132.698,499.166C135.142,501.444 135.186,501.733 134.526,511.176C133.516,525.638 134.527,526.716 150.371,528.058C155.942,528.529 165.225,529.415 171,530.026C181.398,531.125 186.163,531.721 207.5,534.594C218.522,536.078 230.644,537.229 254,539.007C269.728,540.205 281.3,539.006 284.681,535.83C287.206,533.457 288.986,528.315 288.994,523.362C288.998,521.419 290.332,518.288 292.5,515.136C294.425,512.338 296,509.348 296,508.493C296,507.637 295.054,504.139 293.898,500.718C290.487,490.625 292.782,479.358 300.038,470.577C302.23,467.924 304.221,464.796 304.462,463.627C307.66,448.116 308.77,444.663 313.309,436.107C316.049,430.941 319.525,422.744 321.033,417.893C322.542,413.041 325.631,406.134 327.899,402.543C332.181,395.763 333.891,390.601 335.979,378.159C336.976,372.222 338.075,369.557 341.722,364.229C345.499,358.712 346.373,356.524 347.096,350.765C348.203,341.946 350.053,338.16 355.946,332.647C362.528,326.491 368.36,323.66 374.645,323.572C378.955,323.512 380.415,324.001 383.645,326.588C389.117,330.97 390.512,331.585 400.393,333.974C408.878,336.025 411.022,336.093 456.856,335.765C510.942,335.377 511.815,335.268 518.345,328.039C526.36,319.168 528.572,309.767 529.802,279.338C530.599,259.63 530.68,259.083 533.38,255.002C535.329,252.057 537.669,250.152 541.323,248.536C550.807,244.342 556.885,243.668 586.016,243.582L613.533,243.5L618.604,240.25C621.393,238.463 624.567,237 625.658,237C626.748,237 629.409,238.509 631.57,240.353C636.011,244.142 641.132,247 643.48,247C644.349,247 647.859,245.82 651.28,244.378C654.701,242.936 660.568,241.37 664.319,240.897C669.456,240.25 672.598,239.136 677.06,236.382C680.317,234.372 683.53,232.067 684.199,231.26C685.06,230.223 685.64,220.664 686.176,198.646C686.594,181.516 687.391,164.575 687.948,161C689.42,151.543 689.243,113.057 687.715,110.344C686.176,107.611 674.806,99.215 670.083,97.323C668.112,96.534 663.273,94.279 659.328,92.314C653.011,89.166 651.486,88.795 646.538,89.205C641.758,89.602 640.368,90.208 637.211,93.276C635.17,95.259 632.187,97.375 630.583,97.979C628.561,98.74 607.894,99.04 563.284,98.956C505.451,98.846 498.678,98.998 496.701,100.45C486.577,107.884 489.049,107.249 473,106.533C465.025,106.176 445.45,105.573 429.5,105.193L400.5,104.5L394.279,101.25C387.395,97.654 382.992,97.239 369.791,98.939C348.513,101.68 339.253,101.988 274.454,102.114C206.932,102.245 205.32,102.204 201.454,100.222C199.279,99.107 196.375,96.966 195,95.465C190.41,90.455 185.679,89.046 173.361,89.022C164.217,89.004 161.836,89.313 160.069,90.75M496.5,245.662C505.261,250.398 510.094,258.146 511.864,270.291C515.12,292.622 509.957,309.152 498.324,313.639C494.248,315.212 490.925,315.478 476.883,315.356C466.636,315.268 459.449,314.776 458.136,314.073C456.965,313.446 455.106,311.168 454.006,309.011C452.905,306.854 450.316,303.832 448.252,302.295C442.469,297.988 431.184,286.01 428.19,281C425.727,276.879 425.5,275.616 425.5,266C425.5,254.066 426.919,248.757 430.787,246.215C434.232,243.951 444.292,243.243 471,243.385C491.018,243.492 492.776,243.649 496.5,245.662M387.566,278.085C397.016,279.814 399.623,281.531 405.086,289.627C408.224,294.278 412.132,298.503 415.768,301.174C424.124,307.315 427,310.141 427,312.212C427,316.475 416.066,317.168 400.51,313.892C386.666,310.976 384.636,309.958 381.384,304.3C379.867,301.66 377.366,298.029 375.827,296.232C371.998,291.759 371.441,288.753 373.462,283.461C375.996,276.824 377.512,276.246 387.566,278.085"/>
    </g>
</svg>
